# AST/ASF file generated using VICON BodyLanguage
# -----------------------------------------------
:version 1.10
:name VICON
:units
  mass 1.0
  length 0.45
  angle deg
:documentation
   .ast/.asf automatically generated from VICON data using
   VICON BodyBuilder and BodyLanguage model FoxedUp or BRILLIANT.MOD
:root
   order TX TY TZ RX RY RZ
   axis XYZ
   position 0 0 0  
   orientation 0 0 0 
:bonedata
  begin
     id 1 
     name lhipjoint
     direction 0.610259 -0.730986 0.305356 
     length 2.50941 
     axis 0 0 0  XYZ
  end
  begin
     id 2 
     name lfemur
     direction 0.34202 -0.939693 0  
     length 7.48822  
     axis 0 0 20  XYZ
    dof rx ry rz
    limits (-160.0 20.0)
           (-70.0 70.0)
           (-60.0 70.0)
  end
  begin
     id 3 
     name ltibia
     direction 0.34202 -0.939693 0   
     length 7.60141   
     axis 0 0 20   XYZ
    dof rx
    limits (-10.0 170.0)
  end
  begin
     id 4 
     name lfoot
     direction 0.0673488 -0.185039 0.980421   
     length 2.04049   
     axis -90 7.62852e-016 20   XYZ
    dof rx rz
    limits (-45.0 90.0)
           (-70.0 20.0)
  end
  begin
     id 5 
     name ltoes
     direction 1.5356e-011 -4.21729e-011 1   
     length 1.02897   
     axis -90 7.62852e-016 20   XYZ
    dof rx
    limits (-90.0 20.0)
  end
  begin
     id 6 
     name rhipjoint
     direction -0.57612 -0.754205 0.315056   
     length 2.43216  
     axis 0 0 0  XYZ 
  end
  begin
     id 7 
     name rfemur
     direction -0.34202 -0.939693 0   
     length 7.42799   
     axis 0 0 -20   XYZ
    dof rx ry rz
    limits (-160.0 20.0)
           (-70.0 70.0)
           (-70.0 60.0)
  end
  begin
     id 8 
     name rtibia
     direction -0.34202 -0.939693 0   
     length 7.69484   
     axis 0 0 -20   XYZ
    dof rx
    limits (-10.0 170.0)
 end
 begin
     id 9 
     name rfoot
     direction -0.111837 -0.30727 0.945028   
     length 2.15769  
     axis -90 -7.62852e-016 -20   XYZ
    dof rx rz
    limits (-45.0 90.0)
           (-20.0 70.0)
  end
  begin
     id 10 
     name rtoes
     direction -1.53539e-011 -4.21878e-011 1   
     length 1.07391   
     axis -90 -7.62852e-016 -20   XYZ
    dof rx
    limits (-90.0 20.0)
  end
  begin
     id 11 
     name lowerback
     direction 0.00552624 0.990109 -0.140195   
     length 2.12403   
     axis 0 0 0   XYZ
    dof rx ry rz
    limits (-20.0 45.0)
           (-30.0 30.0)
           (-30.0 30.0)
  end
  begin
     id 12 
     name upperback
     direction 0.00361898 0.999976 -0.00584723   
     length 2.13232   
     axis 0 0 0   XYZ
    dof rx ry rz
    limits (-20.0 45.0)
           (-30.0 30.0)
           (-30.0 30.0)
  end
  begin
     id 13 
     name thorax
     direction -0.000331275 0.998253 0.0590847   
     length 2.17688   
     axis 0 0 0   XYZ
    dof rx ry rz
    limits (-20.0 45.0)
           (-30.0 30.0)
           (-30.0 30.0)
  end
  begin
     id 14 
     name lowerneck
     direction -0.0561561 0.979832 0.19177   
     length 1.64159   
     axis 0 0 0   XYZ
    dof rx ry rz
    limits (-20.0 45.0)
           (-30.0 30.0)
           (-30.0 30.0)
  end
  begin
     id 15 
     name upperneck
     direction 0.0827153 0.979385 -0.184293   
     length 1.68939   
     axis 0 0 0   XYZ
    dof rx ry rz
    limits (-20.0 45.0)
           (-30.0 30.0)
           (-30.0 30.0)
  end
  begin
     id 16
     name head
     direction 0.0278583 0.995936 -0.0856488  
     length 1.70207  
     axis 0 0 0   XYZ
    dof rx ry rz
    limits (-20.0 45.0)
           (-30.0 30.0)
           (-30.0 30.0)
  end
  begin
     id 17 
     name lclavicle
     direction 0.950993 0.301131 -0.0702275  
     length 3.41652  
     axis 0 0 0   XYZ
    dof ry rz
    limits (-20.0 10.0)
           (0.0 20.0)
  end
  begin
     id 18 
     name lhumerus
     direction 1 -4.48981e-011 -3.9662e-029   
     length 5.32955   
     axis 180 -30 -90   XYZ
    dof rx ry rz
    limits (-60.0 90.0)
           (-90.0 90.0)
           (-90.0 90.0)
  end
  begin
     id 19
     name lradius
     direction 1 -4.48925e-011 -9.0549e-027   
     length 3.69232   
     axis 180 -30 -90   XYZ
    dof rx
    limits (-10.0 170.0)
  end
  begin
     id 20
     name lwrist
     direction 1 -4.49007e-011 -1.49005e-026   
     length 1.84616   
     axis 9.0955e-015 90 90   XYZ
    dof ry
    limits (-180.0 0.0)
 end
  begin
     id 21 
     name lhand
     direction 1 -4.49016e-011 -2.98023e-026   
     length 0.536598   
     axis 1.90115e-014 90 90   XYZ
    dof rx rz
    limits (-90.0 90.0)
           (-45.0 45.0)
  end
  begin
     id 22 
     name lfingers
     direction 1 -4.48924e-011 -5.9578e-026   
     length 0.432619   
     axis 3.80223e-014 90 90   XYZ
    dof rx
    limits (0.0 90.0)
  end
  begin
     id 23
     name lthumb
     direction 0.707107 -6.34947e-011 0.707107   
     length 0.621157   
     axis -90 45 -3.84942e-014   XYZ
    dof rx rz
    limits (-45.0 45.0)
           (-45.0 45.0)
  end
  begin
     id 24 
     name rclavicle
     direction -0.955495 0.276497 -0.102848   
     length 3.36357  
     axis 0 0 0   XYZ 
    dof ry rz
    limits (-10.0 20.0)
           (-20.0 0.0)
  end
  begin
     id 25 
     name rhumerus
     direction -1 -4.48961e-011 3.30983e-027  
     length 5.23431   
     axis 180 30 90   XYZ
    dof rx ry rz
    limits (-90.0 60.0)
           (-90.0 90.0)
           (-90.0 90.0)
  end
  begin
     id 26 
     name rradius
     direction -1 -4.48965e-011 -6.63263e-027   
     length 3.55301   
     axis 180 30 90   XYZ
    dof rx
    limits (-10.0 170.0)
  end
  begin
     id 27 
     name rwrist
     direction -1 -4.48942e-011 -1.48958e-026   
     length 1.77651   
     axis 9.0955e-015 -90 -90   XYZ
    dof ry
    limits (-180.0 0.0)
  end
  begin
     id 28
     name rhand
     direction -1 -4.48977e-011 -2.97966e-026   
     length 0.772522   
     axis 1.90115e-014 -90 -90   XYZ
    dof rx rz
    limits (-90.0 90.0)
           (-45.0 45.0)
  end
  begin
     id 29
     name rfingers
     direction -1 -4.49135e-011 -5.96389e-026   
     length 0.622827   
     axis 3.80223e-014 -90 -90   XYZ
    dof rx
    limits (0.0 90.0)
  end
  begin
     id 30
     name rthumb
     direction -0.707107 -6.34969e-011 0.707107   
     length 0.894259   
     axis -90 -45 3.84942e-014   XYZ
    dof rx rz
    limits (-45.0 45.0)
           (-45.0 45.0)
  end
:hierarchy
  begin
    root lhipjoint rhipjoint lowerback
    lhipjoint lfemur
    lfemur ltibia
    ltibia lfoot
    lfoot ltoes
    rhipjoint rfemur
    rfemur rtibia
    rtibia rfoot
    rfoot rtoes
    lowerback upperback
    upperback thorax
    thorax lowerneck lclavicle rclavicle
    lowerneck upperneck
    upperneck head
    lclavicle lhumerus
    lhumerus lradius
    lradius lwrist
    lwrist lhand lthumb
    lhand lfingers
    rclavicle rhumerus
    rhumerus rradius
    rradius rwrist
    rwrist rhand rthumb
    rhand rfingers
  end

#!OML:ASF F:\VICON\USERDATA\INSTALL\rory3\rory3.ASF
:FULLY-SPECIFIED
:DEGREES
59
root 9.8271 17.7432 -23.5937 -183.198 0.334147 178.931
lowerback 13.7477 0.390312 -2.25632
upperback 1.79359 0.493567 1.33904
thorax -5.84262 0.402996 2.58927
lowerneck -22.0771 -0.739531 -9.64971
upperneck 32.4923 -0.987036 5.41194
head 15.1002 -1.47315 3.59136
rclavicle 1.3418e-015 7.15625e-015
rhumerus -29.9251 -10.3309 -78.6369
rradius 35.7552
rwrist 3.53554
rhand -14.8908 7.42295
rfingers 7.12502
rthumb 11.27 -22.2543
lclavicle 1.3418e-015 7.15625e-015
lhumerus -32.0702 4.92627 86.6605
lradius 26.7497
lwrist -8.88189
lhand -13.8345 26.5538
lfingers 7.12502
lthumb 12.2887 56.1727
rfemur -15.8768 -1.05469 19.8657
rtibia 34.5995
rfoot -12.2492 -4.47122
rtoes 3.99604
lfemur -10.4349 -3.51075 -22.2907
ltibia 23.3529
lfoot -9.42549 -4.18477
ltoes -12.9801
60
root 9.83916 17.7455 -23.5511 -183.183 -0.157883 178.78
lowerback 13.4584 0.506267 -2.41812
upperback 2.09046 0.147341 1.29631
thorax -5.35499 0.0209521 2.71694
lowerneck -22.8879 -0.794236 -9.58356
upperneck 32.806 -1.04549 5.55974
head 15.4379 -1.46359 3.65359
rclavicle -2.93207e-015 -8.34896e-015
rhumerus -29.812 -10.326 -78.7911
rradius 36.3735
rwrist 2.66781
rhand -15.3983 7.73518
rfingers 7.12502
rthumb 10.7805 -21.9682
lclavicle -2.93207e-015 -8.34896e-015
lhumerus -31.3115 5.08471 86.5287
lradius 26.3404
lwrist -9.37667
lhand -13.6703 26.3209
lfingers 7.12502
lthumb 12.447 55.9303
rfemur -16.0453 -0.86516 19.8144
rtibia 34.6185
rfoot -11.8817 -5.18735
rtoes 4.45418
lfemur -10.5919 -3.48733 -22.3749
ltibia 23.2949
lfoot -9.98528 -4.63794
ltoes -13.61
61
root 9.8482 17.7473 -23.4985 -183.133 -0.684547 178.732
lowerback 13.5578 0.291444 -2.50504
upperback 2.11548 -0.157389 1.27591
thorax -5.3635 -0.129062 2.79997
lowerneck -23.0895 -2.59663 -8.64486
upperneck 32.9173 -0.237478 4.63408
head 15.529 0.072416 3.5914
rclavicle -4.32357e-015 3.97569e-016
rhumerus -30.0442 -10.2458 -78.8556
rradius 36.8823
rwrist 1.96398
rhand -15.8552 8.0449
rfingers 7.12502
rthumb 10.3398 -21.6809
lclavicle -4.32357e-015 3.97569e-016
lhumerus -30.9334 5.48008 86.2817
lradius 25.9993
lwrist -10.0759
lhand -13.2004 26.1424
lfingers 7.12502
lthumb 12.9 55.7237
rfemur -16.2544 -0.808035 19.8332
rtibia 34.5486
rfoot -11.3714 -5.70198
rtoes 4.8724
lfemur -10.8575 -3.45301 -22.3717
ltibia 23.3847
lfoot -10.6586 -5.10352
ltoes -14.7563
62
root 9.84767 17.7495 -23.4472 -183.063 -1.16892 178.81
lowerback 13.6956 0.105797 -2.35527
upperback 2.03284 -0.379254 1.2844
thorax -5.5127 -0.23511 2.76623
lowerneck -22.6091 -2.63814 -8.93506
upperneck 32.3473 -0.389772 4.89202
head 15.1661 0.00297399 3.68473
rclavicle 5.56597e-015 -8.74653e-015
rhumerus -30.5569 -10.366 -78.7858
rradius 37.4361
rwrist 1.40075
rhand -16.0675 7.68577
rfingers 7.12502
rthumb 10.1351 -22.0501
lclavicle 5.56597e-015 -8.74653e-015
lhumerus -30.7148 5.7347 86.1149
lradius 25.7099
lwrist -10.757
lhand -13.1461 25.7921
lfingers 7.12502
lthumb 12.9524 55.37
rfemur -16.3992 -0.749325 19.9036
rtibia 34.4089
rfoot -10.8263 -6.19867
rtoes 5.5937
lfemur -11.1534 -3.41696 -22.3015
ltibia 23.6442
lfoot -11.5075 -5.29704
ltoes -16.2978
63
root 9.84926 17.7543 -23.3993 -183.09 -1.6638 178.942
lowerback 13.9135 -0.0558969 -2.20003
upperback 1.94213 -0.568743 1.32566
thorax -5.71757 -0.324803 2.76084
lowerneck -22.529 -3.03858 -10.0033
upperneck 32.3464 -1.02924 6.1795
head 15.2269 -0.213393 4.30143
rclavicle 6.5102e-015 -1.78906e-014
rhumerus -31.2381 -10.335 -78.6921
rradius 38.0662
rwrist 0.573207
rhand -15.9827 7.16773
rfingers 7.12502
rthumb 10.2169 -22.5642
lclavicle 6.5102e-015 -1.78906e-014
lhumerus -30.5743 5.63608 86.0542
lradius 25.5236
lwrist -10.8485
lhand -13.3475 26.0749
lfingers 7.12502
lthumb 12.7583 55.6651
rfemur -16.3692 -0.647085 20.0442
rtibia 34.2025
rfoot -10.4993 -6.5981
rtoes 6.01659
lfemur -11.4369 -3.4619 -22.1703
ltibia 24.0987
lfoot -12.4606 -5.28432
ltoes -16.9179
64
root 9.85868 17.7587 -23.3447 -183.216 -2.20834 179.197
lowerback 14.189 -0.201674 -1.98958
upperback 1.97317 -0.739573 1.41377
thorax -5.82716 -0.415089 2.7716
lowerneck -22.5203 -1.18101 -10.2976
upperneck 32.1651 -1.56846 6.32435
head 15.1231 -1.62138 3.98634
rclavicle 2.13694e-015 -2.3059e-014
rhumerus -31.8128 -10.1802 -78.6874
rradius 38.6897
rwrist -0.601976
rhand -16.6738 7.51859
rfingers 7.12502
rthumb 9.55008 -22.245
lclavicle 2.13694e-015 -2.3059e-014
lhumerus -30.146 5.53728 86.0249
lradius 25.2575
lwrist -10.7168
lhand -13.5726 26.3113
lfingers 7.12502
lthumb 12.5412 55.9149
rfemur -16.2479 -0.442977 20.3563
rtibia 33.9234
rfoot -10.615 -6.79614
rtoes 5.31626
lfemur -11.7442 -3.51266 -21.8938
ltibia 24.7124
lfoot -13.3001 -4.97878
ltoes -17.6004
65
root 9.86639 17.7617 -23.2914 -183.273 -2.72134 179.513
lowerback 14.2607 -0.344021 -1.73239
upperback 2.05813 -0.894793 1.5453
thorax -5.76855 -0.50273 2.79473
lowerneck -22.6493 -1.24181 -10.1757
upperneck 32.2201 -1.57431 6.00606
head 15.177 -1.6523 3.83105
rclavicle -3.97569e-015 -1.03368e-014
rhumerus -32.185 -9.98315 -78.7209
rradius 39.1685
rwrist -1.85235
rhand -17.8262 8.34098
rfingers 7.12502
rthumb 8.43804 -21.4705
lclavicle -3.97569e-015 -1.03368e-014
lhumerus -29.646 5.57394 86.0171
lradius 25.089
lwrist -10.8322
lhand -13.3115 26.5207
lfingers 7.12502
lthumb 12.7929 56.1088
rfemur -16.2148 -0.397512 20.706
rtibia 33.5998
rfoot -9.76949 -7.75482
rtoes 6.49192
lfemur -12.116 -3.47424 -21.5655
ltibia 25.4456
lfoot -13.8211 -4.58641
ltoes -16.0337
66
root 9.8659 17.7657 -23.2451 -183.382 -3.14372 179.697
lowerback 14.3782 -0.46724 -1.53671
upperback 2.07107 -1.03071 1.61502
thorax -5.81331 -0.57469 2.78595
lowerneck -22.7103 -1.47249 -10.714
upperneck 32.4472 -1.93021 6.50336
head 15.349 -1.82041 4.07708
rclavicle -9.93923e-016 -4.37326e-014
rhumerus -32.763 -10.0709 -78.585
rradius 39.5889
rwrist -2.2515
rhand -18.2164 8.84347
rfingers 7.12502
rthumb 8.06152 -20.9828
lclavicle -9.93923e-016 -4.37326e-014
lhumerus -29.4554 5.56882 85.9823
lradius 25.1982
lwrist -11.0043
lhand -13.1814 26.5798
lfingers 7.12502
lthumb 12.9183 56.1599
rfemur -16.0927 -0.544925 20.8584
rtibia 33.2766
rfoot -9.76982 -7.67038
rtoes 5.5955
lfemur -12.346 -3.46592 -21.4261
ltibia 26.3035
lfoot -14.0463 -3.93211
ltoes -13.4376
67
root 9.8622 17.7729 -23.201 -183.555 -3.51276 179.732
lowerback 14.4851 -0.558941 -1.42899
upperback 2.11137 -1.14335 1.60514
thorax -5.82507 -0.634999 2.73788
lowerneck -22.6966 -1.35057 -10.4215
upperneck 32.2268 -1.69084 6.18217
head 15.2087 -1.70515 3.92849
rclavicle -9.54166e-015 9.54166e-015
rhumerus -33.409 -10.3446 -78.3859
rradius 39.948
rwrist -2.04543
rhand -18.0285 9.15176
rfingers 7.12502
rthumb 8.2428 -20.6674
lclavicle -9.54166e-015 9.54166e-015
lhumerus -29.2394 5.73891 85.8578
lradius 25.3277
lwrist -11.2623
lhand -13.4066 26.3551
lfingers 7.12502
lthumb 12.7013 55.9489
rfemur -15.8854 -0.758279 20.8197
rtibia 32.9597
rfoot -8.73505 -8.14459
rtoes 7.36248
lfemur -12.4553 -3.44066 -21.4514
ltibia 27.3207
lfoot -14.1775 -3.21939
ltoes -10.5924
68
root 9.86069 17.7809 -23.1526 -183.647 -3.86896 179.6
lowerback 14.3558 -0.614236 -1.57976
upperback 2.28468 -1.25365 1.60093
thorax -5.5611 -0.697624 2.83306
lowerneck -22.608 -1.43483 -10.4356
upperneck 31.9198 -1.72784 6.08822
head 15.0517 -1.70946 3.87561
rclavicle -2.09718e-014 3.06128e-014
rhumerus -33.6788 -10.5446 -78.231
rradius 40.2627
rwrist -1.80828
rhand -18.2084 9.36331
rfingers 7.12502
rthumb 8.06922 -20.4626
lclavicle -2.09718e-014 3.06128e-014
lhumerus -28.703 6.00667 85.7907
lradius 25.4165
lwrist -11.4655
lhand -13.7371 26.3593
lfingers 7.12502
lthumb 12.3826 55.9726
rfemur -15.774 -1.02616 20.6138
rtibia 32.6534
rfoot -8.26823 -8.2035
rtoes 8.24544
lfemur -12.6868 -3.14982 -21.6896
ltibia 28.5412
lfoot -14.4004 -1.99273
ltoes -10.543
69
root 9.85558 17.7925 -23.0938 -183.645 -4.15829 179.423
lowerback 14.4168 -0.632132 -1.74107
upperback 2.29161 -1.30387 1.59133
thorax -5.58115 -0.719169 2.92547
lowerneck -22.3682 -1.46793 -10.4682
upperneck 31.7587 -1.73687 5.96802
head 14.9252 -1.72866 3.82118
rclavicle -9.74045e-015 -3.97569e-015
rhumerus -34.2022 -10.5059 -78.0729
rradius 40.7419
rwrist -1.81914
rhand -18.4621 9.28348
rfingers 7.12502
rthumb 7.82436 -20.5517
lclavicle -9.74045e-015 -3.97569e-015
lhumerus -28.2769 5.84201 85.8766
lradius 25.5933
lwrist -11.1579
lhand -13.9011 26.9115
lfingers 7.12502
lthumb 12.2244 56.5343
rfemur -15.8137 -1.2002 20.356
rtibia 32.3801
rfoot -8.00354 -8.2274
rtoes 8.55253
lfemur -13.0831 -2.57517 -22.0339
ltibia 29.9525
lfoot -14.4709 -0.131995
ltoes -13.9796
70
root 9.85014 17.7993 -23.0364 -183.766 -4.29775 179.503
lowerback 14.7405 -0.622039 -1.65511
upperback 2.15707 -1.27137 1.63344
thorax -5.90462 -0.695247 2.92736
lowerneck -22.1437 -1.42062 -10.3609
upperneck 31.9081 -1.70991 5.74904
head 14.9374 -1.75839 3.71385
rclavicle -2.10712e-014 1.74931e-014
rhumerus -35.145 -10.4514 -77.8731
rradius 41.1316
rwrist -1.86444
rhand -17.5698 8.30908
rfingers 7.12502
rthumb 8.68545 -21.4922
lclavicle -2.10712e-014 1.74931e-014
lhumerus -28.0866 5.68743 85.9117
lradius 25.6639
lwrist -10.9222
lhand -13.9383 26.853
lfingers 7.12502
lthumb 12.1886 56.4779
rfemur -15.7527 -1.14796 20.3917
rtibia 32.119
rfoot -7.60755 -8.43917
rtoes 8.51473
lfemur -13.3369 -1.99179 -22.0435
ltibia 31.5748
lfoot -14.5886 1.29903
ltoes -15.7337
71
root 9.84942 17.7977 -22.9851 -183.941 -4.33119 179.622
lowerback 14.8158 -0.572421 -1.61642
upperback 2.17135 -1.20107 1.68725
thorax -5.93472 -0.662625 2.95098
lowerneck -22.4127 -1.30343 -9.85089
upperneck 32.3193 -1.54789 5.15635
head 15.1615 -1.73695 3.41447
rclavicle -4.47266e-016 2.3059e-014
rhumerus -35.7739 -10.5637 -77.7066
rradius 41.0712
rwrist -1.91172
rhand -16.8277 7.92369
rfingers 7.12502
rthumb 9.40157 -21.8466
lclavicle -4.47266e-016 2.3059e-014
lhumerus -27.8107 5.8135 85.8807
lradius 25.7562
lwrist -11.0347
lhand -14.3869 26.6218
lfingers 7.12502
lthumb 11.756 56.2719
rfemur -15.6006 -0.945575 20.5039
rtibia 31.7834
rfoot -7.15003 -8.62589
rtoes 8.30708
lfemur -13.4422 -1.53391 -21.9272
ltibia 33.3049
lfoot -14.848 2.23249
ltoes -16.1423
72
root 9.84263 17.7982 -22.933 -184.029 -4.33884 179.748
lowerback 14.7296 -0.522616 -1.51548
upperback 2.21885 -1.11982 1.73786
thorax -5.84262 -0.62842 2.92843
lowerneck -22.1938 -1.33067 -9.97505
upperneck 32.205 -1.58816 5.23292
head 15.0651 -1.75615 3.45632
rclavicle 5.06901e-015 -2.70347e-014
rhumerus -36.1955 -10.7549 -77.5359
rradius 40.9078
rwrist -1.97208
rhand -16.711 7.99697
rfingers 7.12502
rthumb 9.5142 -21.7682
lclavicle 5.06901e-015 -2.70347e-014
lhumerus -27.4861 5.63496 85.9664
lradius 26.1013
lwrist -10.8294
lhand -14.7644 27.0344
lfingers 7.12502
lthumb 11.392 56.7049
rfemur -15.5456 -0.834342 20.6045
rtibia 31.4531
rfoot -6.80642 -8.54203
rtoes 8.18007
lfemur -13.577 -1.22514 -21.7945
ltibia 35.0681
lfoot -14.8795 2.92652
ltoes -16.5764
